<?xml version="1.0" encoding="UTF-8" standalone="no"?><svg aria-hidden="true" focusable="false" data-icon="info-circle" role="img" viewBox="0 0 512 512" version="1.1" id="svg4" sodipodi:docname="info.svg" inkscape:version="1.2.2 (b0a8486, 2022-12-01)" xmlns:inkscape="http://www.inkscape.org/namespaces/inkscape" xmlns:sodipodi="http://sodipodi.sourceforge.net/DTD/sodipodi-0.dtd" xmlns="http://www.w3.org/2000/svg" xmlns:svg="http://www.w3.org/2000/svg"><defs id="defs8" /><sodipodi:namedview id="namedview6" pagecolor="#ffffff" bordercolor="#cccccc" borderopacity="1" inkscape:showpageshadow="0" inkscape:pageopacity="1" inkscape:pagecheckerboard="0" inkscape:deskcolor="#d1d1d1" showgrid="false" inkscape:zoom="1.5546875" inkscape:cx="221.58794" inkscape:cy="256" inkscape:window-width="1390" inkscape:window-height="946" inkscape:window-x="0" inkscape:window-y="25" inkscape:window-maximized="0" inkscape:current-layer="svg4" /><path fill="currentColor" d="M256 8C119.043 8 8 119.083 8 256c0 136.997 111.043 248 248 248s248-111.003 248-248C504 119.083 392.957 8 256 8zm0 110c23.196 0 42 18.804 42 42s-18.804 42-42 42-42-18.804-42-42 18.804-42 42-42zm56 254c0 6.627-5.373 12-12 12h-88c-6.627 0-12-5.373-12-12v-24c0-6.627 5.373-12 12-12h12v-64h-12c-6.627 0-12-5.373-12-12v-24c0-6.627 5.373-12 12-12h64c6.627 0 12 5.373 12 12v100h12c6.627 0 12 5.373 12 12v24z" id="path2" /><path style="font-variation-settings:'wght' 700;fill:#0c5460;stroke-width:0.643216;fill-opacity:1" d="M 242.81407,503.27525 C 154.79599,498.65249 76.042439,447.451 35.611488,368.56281 17.20785,332.65395 8.5892491,296.75263 8.5892491,256 c 0,-21.73641 2.0329399,-39.15412 6.8684629,-58.84723 20.487814,-83.4385 83.388886,-150.8344 165.286008,-177.097127 48.38794,-15.51702 102.10227,-15.5166783 150.51256,9.65e-4 81.88189,26.246761 144.79851,93.658952 165.28601,177.096162 7.88833,32.12596 9.12544,67.5972 3.51818,100.87555 -6.56617,38.96937 -23.77806,77.94288 -48.41078,109.61829 -39.92933,51.34546 -97.46462,84.62993 -161.93717,93.68152 -8.14538,1.14356 -31.46857,2.78313 -35.96378,2.52817 -0.88442,-0.0502 -5.80502,-0.31163 -10.93467,-0.58104 z m 63.78394,-120.82528 c 1.24394,-0.85253 2.95923,-2.5671 3.81175,-3.81017 1.51075,-2.20284 1.55522,-2.63638 1.75463,-17.10323 0.22023,-15.97673 -0.0862,-18.28123 -2.87121,-21.59099 -2.84013,-3.3753 -4.94387,-4.07182 -13.23824,-4.38295 l -7.54304,-0.28295 -0.17555,-51.53934 -0.17555,-51.53933 -1.52645,-2.45537 c -0.83955,-1.35044 -2.69949,-3.23185 -4.1332,-4.1809 l -2.60674,-1.72554 -34.31117,-0.18231 c -23.02033,-0.12232 -35.15659,0.0453 -36.88028,0.50948 -3.42659,0.92268 -6.73388,3.93546 -8.02158,7.30725 -0.88814,2.32554 -1.01877,5.0937 -0.84577,17.92192 l 0.20459,15.17157 1.96694,2.47021 c 3.34884,4.20572 6.49678,5.36469 14.57136,5.36469 h 6.93909 v 31.43831 31.43831 l -7.55779,0.28347 c -9.78152,0.36689 -12.80562,1.90269 -15.24568,7.7426 -1.35779,3.24963 -1.45941,30.30609 -0.12575,33.47978 1.14373,2.72174 4.70663,6.1411 7.15017,6.86211 1.08452,0.32001 22.95261,0.52611 49.27382,0.46438 L 304.33629,384 Z M 265.00503,201.32705 c 2.47638,-0.51814 6.96281,-2.14569 9.96984,-3.61678 7.18665,-3.51582 15.30838,-11.47315 18.61359,-18.23683 6.24394,-12.77735 6.09359,-27.30334 -0.41159,-39.76722 -5.02344,-9.62488 -16.21583,-18.26011 -26.87008,-20.73099 -5.54188,-1.28525 -15.0717,-1.28525 -20.61358,0 -10.65425,2.47088 -21.84664,11.10611 -26.87008,20.73099 -6.50518,12.46388 -6.65553,26.98987 -0.41159,39.76722 3.30297,6.75909 11.42547,14.71899 18.61359,18.24099 8.97667,4.39834 18.40595,5.6158 27.9799,3.61262 z" id="path306" /></svg>