<?xml version="1.0" encoding="UTF-8" standalone="no"?><svg aria-hidden="true" focusable="false" data-icon="lightbulb" role="img" viewBox="0 0 352 512" version="1.1" id="svg4" sodipodi:docname="lightbulb.svg" inkscape:version="1.2.2 (b0a8486, 2022-12-01)" xmlns:inkscape="http://www.inkscape.org/namespaces/inkscape" xmlns:sodipodi="http://sodipodi.sourceforge.net/DTD/sodipodi-0.dtd" xmlns="http://www.w3.org/2000/svg" xmlns:svg="http://www.w3.org/2000/svg"><defs id="defs8" /><sodipodi:namedview id="namedview6" pagecolor="#ffffff" bordercolor="#cccccc" borderopacity="1" inkscape:showpageshadow="0" inkscape:pageopacity="1" inkscape:pagecheckerboard="0" inkscape:deskcolor="#d1d1d1" showgrid="false" inkscape:zoom="1.5546875" inkscape:cx="142.47236" inkscape:cy="256" inkscape:window-width="1390" inkscape:window-height="946" inkscape:window-x="0" inkscape:window-y="25" inkscape:window-maximized="0" inkscape:current-layer="svg4" /><path fill="currentColor" d="M96.06 454.35c.01 6.29 1.87 12.45 5.36 17.69l17.09 25.69a31.99 31.99 0 0 0 26.64 14.28h61.71a31.99 31.99 0 0 0 26.64-14.28l17.09-25.69a31.989 31.989 0 0 0 5.36-17.69l.04-38.35H96.01l.05 38.35zM0 176c0 44.37 16.45 84.85 43.56 115.78 16.52 18.85 42.36 58.23 52.21 91.45.04.26.07.52.11.78h160.24c.04-.26.07-.51.11-.78 9.85-33.22 35.69-72.6 52.21-91.45C335.55 260.85 352 220.37 352 176 352 78.61 272.91-.3 175.45 0 73.44.31 0 82.97 0 176zm176-80c-44.11 0-80 35.89-80 80 0 8.84-7.16 16-16 16s-16-7.16-16-16c0-61.76 50.24-112 112-112 8.84 0 16 7.16 16 16s-7.16 16-16 16z" id="path2" /><path style="font-variation-settings:'wght' 700;fill:#155724;stroke-width:0.643216;fill-opacity:1" d="M 94.197406,377.40954 C 85.863841,352.16581 65.680138,317.64082 44.211686,291.90706 32.294709,277.62245 25.671234,267.75252 18.819328,254.06879 1.4557218,219.39247 -3.817019,179.71238 3.860797,141.49813 9.3850095,114.00287 21.535216,87.860371 39.070224,65.741212 45.310533,57.869506 58.377722,44.698016 65.929648,38.667399 98.587697,12.588199 139.61486,-0.92448502 181.70854,0.5345215 260.48751,3.265074 327.09019,57.099083 346.42312,133.67099 c 5.58473,22.11943 6.61844,48.74721 2.77625,71.51494 -4.92044,29.1572 -17.75897,57.60437 -36.28634,80.40201 -2.87503,3.53769 -7.68875,9.47136 -10.69714,13.18593 -6.21022,7.66796 -19.40356,27.23468 -25.15486,37.30653 -8.00437,14.01748 -14.61941,28.11223 -18.8674,40.20101 l -2.48629,7.07537 -79.71939,0.16332 -79.719394,0.16331 z M 86.848444,190.79649 c 2.987025,-1.35691 6.329748,-4.50017 7.791193,-7.3263 0.59026,-1.14143 1.256162,-4.94397 1.593181,-9.09757 0.826848,-10.19067 1.729609,-15.29518 3.935382,-22.25202 7.79368,-24.58067 27.36973,-44.1566 51.9524,-51.9521 7.07806,-2.244557 12.30673,-3.172544 22.24068,-3.947304 7.85852,-0.612889 9.92485,-1.37728 13.40227,-4.957871 3.22958,-3.325389 4.4396,-6.940804 4.13386,-12.351557 -0.32158,-5.691208 -2.68935,-9.816139 -7.25754,-12.643505 -2.97957,-1.844139 -3.55836,-1.957789 -10.9902,-2.158041 -20.05599,-0.54041 -44.26433,7.310227 -62.6949,20.331622 -7.821,5.525619 -20.956851,18.654506 -26.526986,26.512926 -8.561882,12.07922 -15.350313,27.78756 -18.593846,43.02593 -1.627401,7.64567 -2.365556,23.84646 -1.241671,27.25186 2.195245,6.65166 8.125035,10.77787 15.45362,10.75331 2.682899,-0.009 5.155975,-0.44139 6.802557,-1.18938 z" id="path306" /><path style="font-variation-settings:'wght' 700;fill:#155724;fill-opacity:1;stroke-width:0.643216" d="m 137.39888,510.66176 c -4.95627,-1.33291 -10.31045,-4.365 -13.87988,-7.86021 -3.19872,-3.1322 -20.76937,-28.84072 -23.803146,-34.82759 -3.08017,-6.07842 -3.531688,-10.11887 -3.543881,-31.71265 l -0.01117,-19.7789 h 79.758797 79.75879 l -0.01,20.42211 c -0.0101,21.73887 -0.41312,25.5548 -3.29671,31.21623 -3.00409,5.89802 -21.87322,33.24718 -24.50603,35.51936 -3.44094,2.96962 -9.03197,5.83703 -13.80588,7.08048 -5.33753,1.39024 -71.46183,1.3395 -76.66138,-0.0589 z" id="path1795" /></svg>