<?xml version="1.0" encoding="UTF-8" standalone="no"?><svg aria-hidden="true" focusable="false" viewBox="0 0 24 24" data-icon="warning" role="img" version="1.1" sodipodi:docname="warning.svg" inkscape:version="1.2.2 (b0a8486, 2022-12-01)" id="svg6" xmlns:inkscape="http://www.inkscape.org/namespaces/inkscape" xmlns:sodipodi="http://sodipodi.sourceforge.net/DTD/sodipodi-0.dtd" xmlns="http://www.w3.org/2000/svg" xmlns:svg="http://www.w3.org/2000/svg"><defs id="defs7" /><sodipodi:namedview id="namedview5" pagecolor="#ffffff" bordercolor="#cccccc" borderopacity="1" inkscape:showpageshadow="0" inkscape:pageopacity="1" inkscape:pagecheckerboard="0" inkscape:deskcolor="#d1d1d1" showgrid="false" inkscape:zoom="33.166667" inkscape:cx="9.1959798" inkscape:cy="12" inkscape:window-width="1390" inkscape:window-height="946" inkscape:window-x="0" inkscape:window-y="25" inkscape:window-maximized="0" inkscape:current-layer="svg6" /><path style="font-variation-settings:'wght' 700;fill:#ff9100;fill-opacity:1;stroke-width:0.0301508" d="M 3.4522613,21.540587 C 2.4374951,21.413054 1.5537582,20.77229 1.1149022,19.845855 0.89363778,19.378762 0.84887148,19.169061 0.84636598,18.587939 c -0.00241,-0.559 0.0465074,-0.811813 0.23588522,-1.21909 C 1.2512596,17.005378 8.8775982,3.1765771 9.0147305,2.9849247 9.4031174,2.4421254 10.033314,2.0160945 10.711119,1.8381166 c 0.714693,-0.1876635 1.570951,-0.061231 2.230414,0.3293357 0.336416,0.1992419 0.746826,0.58829 0.954442,0.9047621 0.221773,0.338053 7.815897,14.1440346 7.9176,14.3940556 0.166346,0.408935 0.196496,0.583031 0.194255,1.121669 -0.0024,0.581126 -0.04715,0.790722 -0.268462,1.257916 -0.446446,0.942459 -1.317816,1.566745 -2.366719,1.695618 -0.308525,0.03791 -15.6184962,0.03705 -15.9203877,-8.86e-4 z m 8.4249847,-4.05606 c 0.198902,-0.09739 0.38767,-0.289987 0.479559,-0.489281 0.09465,-0.205291 0.09258,-0.623533 -0.0041,-0.834442 -0.08695,-0.189606 -0.277949,-0.388352 -0.47328,-0.492465 -0.134416,-0.07163 -0.183515,-0.08035 -0.45229,-0.08035 -0.267958,0 -0.318349,0.0089 -0.452858,0.07988 -0.211706,0.111737 -0.413573,0.337782 -0.495425,0.554762 -0.08468,0.224486 -0.07574,0.555469 0.02088,0.772616 0.119795,0.269228 0.389907,0.495169 0.682655,0.571023 0.181009,0.0469 0.511541,0.008 0.694854,-0.08174 z m 0.0027,-3.99879 c 0.208746,-0.107178 0.41327,-0.334488 0.493218,-0.548167 0.06531,-0.174557 0.06544,-0.180086 0.05718,-2.410536 L 12.422144,8.291457 12.318606,8.100488 C 12.161497,7.810709 11.937466,7.648279 11.604566,7.582785 11.175648,7.498401 10.750525,7.704314 10.535732,8.100488 l -0.103537,0.190969 -0.0083,2.235577 c -0.0083,2.23045 -0.0081,2.235979 0.05718,2.410536 0.10356,0.276788 0.365226,0.52228 0.659643,0.618866 0.04146,0.0136 0.190703,0.02074 0.331658,0.01587 0.20465,-0.0071 0.286773,-0.02451 0.407632,-0.08657 z" id="path305" /></svg>